<?xml version="1.0" standalone="no"?>
<!DOCTYPE svg PUBLIC "-//W3C//DTD SVG 1.1//EN" "http://www.w3.org/Graphics/SVG/1.1/DTD/svg11.dtd">
<svg version="1.1" width="1200" height="534" onload="init(evt)" viewBox="0 0 1200 534" xmlns="http://www.w3.org/2000/svg" xmlns:xlink="http://www.w3.org/1999/xlink">
<!-- Flame graph stack visualization. See https://github.com/brendangregg/FlameGraph for latest version, and http://www.brendangregg.com/flamegraphs.html for examples. -->
<!-- NOTES:  -->
<defs>
	<linearGradient id="background" y1="0" y2="1" x1="0" x2="0" >
		<stop stop-color="#eeeeee" offset="5%" />
		<stop stop-color="#e0e0ff" offset="95%" />
	</linearGradient>
</defs>
<style type="text/css">
	text { font-family:Verdana; font-size:12px; fill:rgb(0,0,0); }
	#search, #ignorecase { opacity:0.1; cursor:pointer; }
	#search:hover, #search.show, #ignorecase:hover, #ignorecase.show { opacity:1; }
	#subtitle { text-anchor:middle; font-color:rgb(160,160,160); }
	#title { text-anchor:middle; font-size:17px}
	#unzoom { cursor:pointer; }
	#frames > *:hover { stroke:black; stroke-width:0.5; cursor:pointer; }
	.hide { display:none; }
	.parent { opacity:0.5; }
</style>
<script type="text/ecmascript">
<![CDATA[
	"use strict";
	var details, searchbtn, unzoombtn, matchedtxt, svg, searching, currentSearchTerm, ignorecase, ignorecaseBtn;
	function init(evt) {
		details = document.getElementById("details").firstChild;
		searchbtn = document.getElementById("search");
		ignorecaseBtn = document.getElementById("ignorecase");
		unzoombtn = document.getElementById("unzoom");
		matchedtxt = document.getElementById("matched");
		svg = document.getElementsByTagName("svg")[0];
		searching = 0;
		currentSearchTerm = null;

		// use GET parameters to restore a flamegraphs state.
		var params = get_params();
		if (params.x && params.y)
			zoom(find_group(document.querySelector('[x="' + params.x + '"][y="' + params.y + '"]')));
                if (params.s) search(params.s);
	}

	// event listeners
	window.addEventListener("click", function(e) {
		var target = find_group(e.target);
		if (target) {
			if (target.nodeName == "a") {
				if (e.ctrlKey === false) return;
				e.preventDefault();
			}
			if (target.classList.contains("parent")) unzoom(true);
			zoom(target);
			if (!document.querySelector('.parent')) {
				// we have basically done a clearzoom so clear the url
				var params = get_params();
				if (params.x) delete params.x;
				if (params.y) delete params.y;
				history.replaceState(null, null, parse_params(params));
				unzoombtn.classList.add("hide");
				return;
			}

			// set parameters for zoom state
			var el = target.querySelector("rect");
			if (el && el.attributes && el.attributes.y && el.attributes._orig_x) {
				var params = get_params()
				params.x = el.attributes._orig_x.value;
				params.y = el.attributes.y.value;
				history.replaceState(null, null, parse_params(params));
			}
		}
		else if (e.target.id == "unzoom") clearzoom();
		else if (e.target.id == "search") search_prompt();
		else if (e.target.id == "ignorecase") toggle_ignorecase();
	}, false)

	// mouse-over for info
	// show
	window.addEventListener("mouseover", function(e) {
		var target = find_group(e.target);
		if (target) details.nodeValue = "Function: " + g_to_text(target);
	}, false)

	// clear
	window.addEventListener("mouseout", function(e) {
		var target = find_group(e.target);
		if (target) details.nodeValue = ' ';
	}, false)

	// ctrl-F for search
	// ctrl-I to toggle case-sensitive search
	window.addEventListener("keydown",function (e) {
		if (e.keyCode === 114 || (e.ctrlKey && e.keyCode === 70)) {
			e.preventDefault();
			search_prompt();
		}
		else if (e.ctrlKey && e.keyCode === 73) {
			e.preventDefault();
			toggle_ignorecase();
		}
	}, false)

	// functions
	function get_params() {
		var params = {};
		var paramsarr = window.location.search.substr(1).split('&');
		for (var i = 0; i < paramsarr.length; ++i) {
			var tmp = paramsarr[i].split("=");
			if (!tmp[0] || !tmp[1]) continue;
			params[tmp[0]]  = decodeURIComponent(tmp[1]);
		}
		return params;
	}
	function parse_params(params) {
		var uri = "?";
		for (var key in params) {
			uri += key + '=' + encodeURIComponent(params[key]) + '&';
		}
		if (uri.slice(-1) == "&")
			uri = uri.substring(0, uri.length - 1);
		if (uri == '?')
			uri = window.location.href.split('?')[0];
		return uri;
	}
	function find_child(node, selector) {
		var children = node.querySelectorAll(selector);
		if (children.length) return children[0];
	}
	function find_group(node) {
		var parent = node.parentElement;
		if (!parent) return;
		if (parent.id == "frames") return node;
		return find_group(parent);
	}
	function orig_save(e, attr, val) {
		if (e.attributes["_orig_" + attr] != undefined) return;
		if (e.attributes[attr] == undefined) return;
		if (val == undefined) val = e.attributes[attr].value;
		e.setAttribute("_orig_" + attr, val);
	}
	function orig_load(e, attr) {
		if (e.attributes["_orig_"+attr] == undefined) return;
		e.attributes[attr].value = e.attributes["_orig_" + attr].value;
		e.removeAttribute("_orig_"+attr);
	}
	function g_to_text(e) {
		var text = find_child(e, "title").firstChild.nodeValue;
		return (text)
	}
	function g_to_func(e) {
		var func = g_to_text(e);
		// if there's any manipulation we want to do to the function
		// name before it's searched, do it here before returning.
		return (func);
	}
	function update_text(e) {
		var r = find_child(e, "rect");
		var t = find_child(e, "text");
		var w = parseFloat(r.attributes.width.value) -3;
		var txt = find_child(e, "title").textContent.replace(/\([^(]*\)$/,"");
		t.attributes.x.value = parseFloat(r.attributes.x.value) + 3;

		// Smaller than this size won't fit anything
		if (w < 2 * 12 * 0.59) {
			t.textContent = "";
			return;
		}

		t.textContent = txt;
		var sl = t.getSubStringLength(0, txt.length);
		// check if only whitespace or if we can fit the entire string into width w
		if (/^ *$/.test(txt) || sl < w)
			return;

		// this isn't perfect, but gives a good starting point
		// and avoids calling getSubStringLength too often
		var start = Math.floor((w/sl) * txt.length);
		for (var x = start; x > 0; x = x-2) {
			if (t.getSubStringLength(0, x + 2) <= w) {
				t.textContent = txt.substring(0, x) + "..";
				return;
			}
		}
		t.textContent = "";
	}

	// zoom
	function zoom_reset(e) {
		if (e.attributes != undefined) {
			orig_load(e, "x");
			orig_load(e, "width");
		}
		if (e.childNodes == undefined) return;
		for (var i = 0, c = e.childNodes; i < c.length; i++) {
			zoom_reset(c[i]);
		}
	}
	function zoom_child(e, x, ratio) {
		if (e.attributes != undefined) {
			if (e.attributes.x != undefined) {
				orig_save(e, "x");
				e.attributes.x.value = (parseFloat(e.attributes.x.value) - x - 10) * ratio + 10;
				if (e.tagName == "text")
					e.attributes.x.value = find_child(e.parentNode, "rect[x]").attributes.x.value + 3;
			}
			if (e.attributes.width != undefined) {
				orig_save(e, "width");
				e.attributes.width.value = parseFloat(e.attributes.width.value) * ratio;
			}
		}

		if (e.childNodes == undefined) return;
		for (var i = 0, c = e.childNodes; i < c.length; i++) {
			zoom_child(c[i], x - 10, ratio);
		}
	}
	function zoom_parent(e) {
		if (e.attributes) {
			if (e.attributes.x != undefined) {
				orig_save(e, "x");
				e.attributes.x.value = 10;
			}
			if (e.attributes.width != undefined) {
				orig_save(e, "width");
				e.attributes.width.value = parseInt(svg.width.baseVal.value) - (10 * 2);
			}
		}
		if (e.childNodes == undefined) return;
		for (var i = 0, c = e.childNodes; i < c.length; i++) {
			zoom_parent(c[i]);
		}
	}
	function zoom(node) {
		var attr = find_child(node, "rect").attributes;
		var width = parseFloat(attr.width.value);
		var xmin = parseFloat(attr.x.value);
		var xmax = parseFloat(xmin + width);
		var ymin = parseFloat(attr.y.value);
		var ratio = (svg.width.baseVal.value - 2 * 10) / width;

		// XXX: Workaround for JavaScript float issues (fix me)
		var fudge = 0.0001;

		unzoombtn.classList.remove("hide");

		var el = document.getElementById("frames").children;
		for (var i = 0; i < el.length; i++) {
			var e = el[i];
			var a = find_child(e, "rect").attributes;
			var ex = parseFloat(a.x.value);
			var ew = parseFloat(a.width.value);
			var upstack;
			// Is it an ancestor
			if (0 == 0) {
				upstack = parseFloat(a.y.value) > ymin;
			} else {
				upstack = parseFloat(a.y.value) < ymin;
			}
			if (upstack) {
				// Direct ancestor
				if (ex <= xmin && (ex+ew+fudge) >= xmax) {
					e.classList.add("parent");
					zoom_parent(e);
					update_text(e);
				}
				// not in current path
				else
					e.classList.add("hide");
			}
			// Children maybe
			else {
				// no common path
				if (ex < xmin || ex + fudge >= xmax) {
					e.classList.add("hide");
				}
				else {
					zoom_child(e, xmin, ratio);
					update_text(e);
				}
			}
		}
		search();
	}
	function unzoom(dont_update_text) {
		unzoombtn.classList.add("hide");
		var el = document.getElementById("frames").children;
		for(var i = 0; i < el.length; i++) {
			el[i].classList.remove("parent");
			el[i].classList.remove("hide");
			zoom_reset(el[i]);
			if(!dont_update_text) update_text(el[i]);
		}
		search();
	}
	function clearzoom() {
		unzoom();

		// remove zoom state
		var params = get_params();
		if (params.x) delete params.x;
		if (params.y) delete params.y;
		history.replaceState(null, null, parse_params(params));
	}

	// search
	function toggle_ignorecase() {
		ignorecase = !ignorecase;
		if (ignorecase) {
			ignorecaseBtn.classList.add("show");
		} else {
			ignorecaseBtn.classList.remove("show");
		}
		reset_search();
		search();
	}
	function reset_search() {
		var el = document.querySelectorAll("#frames rect");
		for (var i = 0; i < el.length; i++) {
			orig_load(el[i], "fill")
		}
		var params = get_params();
		delete params.s;
		history.replaceState(null, null, parse_params(params));
	}
	function search_prompt() {
		if (!searching) {
			var term = prompt("Enter a search term (regexp " +
			    "allowed, eg: ^ext4_)"
			    + (ignorecase ? ", ignoring case" : "")
			    + "\nPress Ctrl-i to toggle case sensitivity", "");
			if (term != null) search(term);
		} else {
			reset_search();
			searching = 0;
			currentSearchTerm = null;
			searchbtn.classList.remove("show");
			searchbtn.firstChild.nodeValue = "Search"
			matchedtxt.classList.add("hide");
			matchedtxt.firstChild.nodeValue = ""
		}
	}
	function search(term) {
		if (term) currentSearchTerm = term;
		if (currentSearchTerm === null) return;

		var re = new RegExp(currentSearchTerm, ignorecase ? 'i' : '');
		var el = document.getElementById("frames").children;
		var matches = new Object();
		var maxwidth = 0;
		for (var i = 0; i < el.length; i++) {
			var e = el[i];
			var func = g_to_func(e);
			var rect = find_child(e, "rect");
			if (func == null || rect == null)
				continue;

			// Save max width. Only works as we have a root frame
			var w = parseFloat(rect.attributes.width.value);
			if (w > maxwidth)
				maxwidth = w;

			if (func.match(re)) {
				// highlight
				var x = parseFloat(rect.attributes.x.value);
				orig_save(rect, "fill");
				rect.attributes.fill.value = "rgb(230,0,230)";

				// remember matches
				if (matches[x] == undefined) {
					matches[x] = w;
				} else {
					if (w > matches[x]) {
						// overwrite with parent
						matches[x] = w;
					}
				}
				searching = 1;
			}
		}
		if (!searching)
			return;
		var params = get_params();
		params.s = currentSearchTerm;
		history.replaceState(null, null, parse_params(params));

		searchbtn.classList.add("show");
		searchbtn.firstChild.nodeValue = "Reset Search";

		// calculate percent matched, excluding vertical overlap
		var count = 0;
		var lastx = -1;
		var lastw = 0;
		var keys = Array();
		for (k in matches) {
			if (matches.hasOwnProperty(k))
				keys.push(k);
		}
		// sort the matched frames by their x location
		// ascending, then width descending
		keys.sort(function(a, b){
			return a - b;
		});
		// Step through frames saving only the biggest bottom-up frames
		// thanks to the sort order. This relies on the tree property
		// where children are always smaller than their parents.
		var fudge = 0.0001;	// JavaScript floating point
		for (var k in keys) {
			var x = parseFloat(keys[k]);
			var w = matches[keys[k]];
			if (x >= lastx + lastw - fudge) {
				count += w;
				lastx = x;
				lastw = w;
			}
		}
		// display matched percent
		matchedtxt.classList.remove("hide");
		var pct = 100 * count / maxwidth;
		if (pct != 100) pct = pct.toFixed(1)
		matchedtxt.firstChild.nodeValue = "Matched: " + pct + "%";
	}
]]>
</script>
<rect x="0.0" y="0" width="1200.0" height="534.0" fill="url(#background)"  />
<text id="title" x="600.00" y="24" >profile Flame Graph</text>
<text id="details" x="10.00" y="517" > </text>
<text id="unzoom" x="10.00" y="24" class="hide">Reset Zoom</text>
<text id="search" x="1090.00" y="24" >Search</text>
<text id="ignorecase" x="1174.00" y="24" >ic</text>
<text id="matched" x="1090.00" y="517" > </text>
<g id="frames">
<g >
<title>strncpy_from_user (1 samples, 5.26%)</title><rect x="506.8" y="197" width="62.1" height="15.0" fill="rgb(240,140,39)" rx="2" ry="2" />
<text  x="509.84" y="207.5" >strncp..</text>
</g>
<g >
<title>ScreenManager_run (13 samples, 68.42%)</title><rect x="258.4" y="389" width="807.4" height="15.0" fill="rgb(243,186,41)" rx="2" ry="2" />
<text  x="261.42" y="399.5" >ScreenManager_run</text>
</g>
<g >
<title>do_syscall_64 (1 samples, 5.26%)</title><rect x="1003.7" y="325" width="62.1" height="15.0" fill="rgb(232,189,30)" rx="2" ry="2" />
<text  x="1006.68" y="335.5" >do_sys..</text>
</g>
<g >
<title>do_syscall_64 (2 samples, 10.53%)</title><rect x="258.4" y="277" width="124.2" height="15.0" fill="rgb(232,189,30)" rx="2" ry="2" />
<text  x="261.42" y="287.5" >do_syscall_64</text>
</g>
<g >
<title>syscall_exit_to_user_mode (1 samples, 5.26%)</title><rect x="755.3" y="245" width="62.1" height="15.0" fill="rgb(250,167,49)" rx="2" ry="2" />
<text  x="758.26" y="255.5" >syscal..</text>
</g>
<g >
<title>__libc_start_call_main (2 samples, 10.53%)</title><rect x="1065.8" y="421" width="124.2" height="15.0" fill="rgb(247,154,46)" rx="2" ry="2" />
<text  x="1068.79" y="431.5" >__libc_start_ca..</text>
</g>
<g >
<title>do_epoll_wait (1 samples, 5.26%)</title><rect x="10.0" y="197" width="62.1" height="15.0" fill="rgb(237,189,35)" rx="2" ry="2" />
<text  x="13.00" y="207.5" >do_epo..</text>
</g>
<g >
<title>systemd-oomd (2 samples, 10.53%)</title><rect x="1065.8" y="469" width="124.2" height="15.0" fill="rgb(241,167,40)" rx="2" ry="2" />
<text  x="1068.79" y="479.5" >systemd-oomd</text>
</g>
<g >
<title>__x64_sys_futex (1 samples, 5.26%)</title><rect x="72.1" y="261" width="62.1" height="15.0" fill="rgb(247,154,46)" rx="2" ry="2" />
<text  x="75.11" y="271.5" >__x64_..</text>
</g>
<g >
<title>link_path_walk.part.0.constprop.0 (1 samples, 5.26%)</title><rect x="941.6" y="213" width="62.1" height="15.0" fill="rgb(236,129,34)" rx="2" ry="2" />
<text  x="944.58" y="223.5" >link_p..</text>
</g>
<g >
<title>__cond_resched (1 samples, 5.26%)</title><rect x="320.5" y="117" width="62.1" height="15.0" fill="rgb(247,144,46)" rx="2" ry="2" />
<text  x="323.53" y="127.5" >__cond..</text>
</g>
<g >
<title>__x64_sys_read (3 samples, 15.79%)</title><rect x="568.9" y="229" width="186.4" height="15.0" fill="rgb(241,154,40)" rx="2" ry="2" />
<text  x="571.95" y="239.5" >__x64_sys_read</text>
</g>
<g >
<title>proc_pid_readdir (2 samples, 10.53%)</title><rect x="817.4" y="229" width="124.2" height="15.0" fill="rgb(238,184,37)" rx="2" ry="2" />
<text  x="820.37" y="239.5" >proc_pid_readdir</text>
</g>
<g >
<title>x64_sys_call (1 samples, 5.26%)</title><rect x="941.6" y="293" width="62.1" height="15.0" fill="rgb(230,166,28)" rx="2" ry="2" />
<text  x="944.58" y="303.5" >x64_sy..</text>
</g>
<g >
<title>do_sys_openat2 (1 samples, 5.26%)</title><rect x="941.6" y="261" width="62.1" height="15.0" fill="rgb(247,189,46)" rx="2" ry="2" />
<text  x="944.58" y="271.5" >do_sys..</text>
</g>
<g >
<title>snprintf (1 samples, 5.26%)</title><rect x="879.5" y="213" width="62.1" height="15.0" fill="rgb(243,177,42)" rx="2" ry="2" />
<text  x="882.47" y="223.5" >snprintf</text>
</g>
<g >
<title>entry_SYSCALL_64_after_hwframe (1 samples, 5.26%)</title><rect x="72.1" y="309" width="62.1" height="15.0" fill="rgb(241,196,40)" rx="2" ry="2" />
<text  x="75.11" y="319.5" >entry_..</text>
</g>
<g >
<title>bpf_prog_b8cb7c6e6d53ac49 (1 samples, 5.26%)</title><rect x="1065.8" y="117" width="62.1" height="15.0" fill="rgb(231,136,29)" rx="2" ry="2" />
<text  x="1068.79" y="127.5" >bpf_pr..</text>
</g>
<g >
<title>__d_lookup (1 samples, 5.26%)</title><rect x="1127.9" y="53" width="62.1" height="15.0" fill="rgb(236,141,34)" rx="2" ry="2" />
<text  x="1130.89" y="63.5" >__d_lo..</text>
</g>
<g >
<title>[unknown] (2 samples, 10.53%)</title><rect x="1065.8" y="341" width="124.2" height="15.0" fill="rgb(242,180,40)" rx="2" ry="2" />
<text  x="1068.79" y="351.5" >[unknown]</text>
</g>
<g >
<title>seq_read (3 samples, 15.79%)</title><rect x="568.9" y="181" width="186.4" height="15.0" fill="rgb(241,163,40)" rx="2" ry="2" />
<text  x="571.95" y="191.5" >seq_read</text>
</g>
<g >
<title>__fput (2 samples, 10.53%)</title><rect x="382.6" y="213" width="124.2" height="15.0" fill="rgb(234,135,31)" rx="2" ry="2" />
<text  x="385.63" y="223.5" >__fput</text>
</g>
<g >
<title>close (1 samples, 5.26%)</title><rect x="1003.7" y="357" width="62.1" height="15.0" fill="rgb(245,102,44)" rx="2" ry="2" />
<text  x="1006.68" y="367.5" >close</text>
</g>
<g >
<title>__getdents (2 samples, 10.53%)</title><rect x="817.4" y="341" width="124.2" height="15.0" fill="rgb(238,132,36)" rx="2" ry="2" />
<text  x="820.37" y="351.5" >__getdents</text>
</g>
<g >
<title>strncpy_from_user (1 samples, 5.26%)</title><rect x="506.8" y="181" width="62.1" height="15.0" fill="rgb(240,140,39)" rx="2" ry="2" />
<text  x="509.84" y="191.5" >strncp..</text>
</g>
<g >
<title>runtime.stopm (1 samples, 5.26%)</title><rect x="72.1" y="357" width="62.1" height="15.0" fill="rgb(235,156,33)" rx="2" ry="2" />
<text  x="75.11" y="367.5" >runtim..</text>
</g>
<g >
<title>__open (2 samples, 10.53%)</title><rect x="1065.8" y="213" width="124.2" height="15.0" fill="rgb(250,144,49)" rx="2" ry="2" />
<text  x="1068.79" y="223.5" >__open</text>
</g>
<g >
<title>all (19 samples, 100%)</title><rect x="10.0" y="485" width="1180.0" height="15.0" fill="rgb(255,230,55)" rx="2" ry="2" />
<text  x="13.00" y="495.5" ></text>
</g>
<g >
<title>__GI__IO_file_fopen (2 samples, 10.53%)</title><rect x="1065.8" y="245" width="124.2" height="15.0" fill="rgb(250,119,49)" rx="2" ry="2" />
<text  x="1068.79" y="255.5" >__GI__IO_file_f..</text>
</g>
<g >
<title>x64_sys_call (2 samples, 10.53%)</title><rect x="258.4" y="261" width="124.2" height="15.0" fill="rgb(230,166,28)" rx="2" ry="2" />
<text  x="261.42" y="271.5" >x64_sys_call</text>
</g>
<g >
<title>hook_file_alloc_security (1 samples, 5.26%)</title><rect x="258.4" y="149" width="62.1" height="15.0" fill="rgb(240,183,38)" rx="2" ry="2" />
<text  x="261.42" y="159.5" >hook_f..</text>
</g>
<g >
<title>do_sys_openat2 (1 samples, 5.26%)</title><rect x="506.8" y="245" width="62.1" height="15.0" fill="rgb(247,189,46)" rx="2" ry="2" />
<text  x="509.84" y="255.5" >do_sys..</text>
</g>
<g >
<title>dput (1 samples, 5.26%)</title><rect x="320.5" y="149" width="62.1" height="15.0" fill="rgb(234,191,31)" rx="2" ry="2" />
<text  x="323.53" y="159.5" >dput</text>
</g>
<g >
<title>g_type_check_instance_is_fundamentally_a (1 samples, 5.26%)</title><rect x="196.3" y="293" width="62.1" height="15.0" fill="rgb(234,144,32)" rx="2" ry="2" />
<text  x="199.32" y="303.5" >g_type..</text>
</g>
<g >
<title>containerd (2 samples, 10.53%)</title><rect x="10.0" y="469" width="124.2" height="15.0" fill="rgb(247,146,46)" rx="2" ry="2" />
<text  x="13.00" y="479.5" >containerd</text>
</g>
<g >
<title>inode_permission (1 samples, 5.26%)</title><rect x="941.6" y="197" width="62.1" height="15.0" fill="rgb(247,180,46)" rx="2" ry="2" />
<text  x="944.58" y="207.5" >inode_..</text>
</g>
<g >
<title>read_resource_pressure (2 samples, 10.53%)</title><rect x="1065.8" y="293" width="124.2" height="15.0" fill="rgb(242,184,41)" rx="2" ry="2" />
<text  x="1068.79" y="303.5" >read_resource_p..</text>
</g>
<g >
<title>do_sys_openat2 (2 samples, 10.53%)</title><rect x="258.4" y="229" width="124.2" height="15.0" fill="rgb(247,189,46)" rx="2" ry="2" />
<text  x="261.42" y="239.5" >do_sys_openat2</text>
</g>
<g >
<title>hook_file_alloc_security (1 samples, 5.26%)</title><rect x="258.4" y="133" width="62.1" height="15.0" fill="rgb(240,183,38)" rx="2" ry="2" />
<text  x="261.42" y="143.5" >hook_f..</text>
</g>
<g >
<title>runtime.park_m (1 samples, 5.26%)</title><rect x="10.0" y="357" width="62.1" height="15.0" fill="rgb(223,156,20)" rx="2" ry="2" />
<text  x="13.00" y="367.5" >runtim..</text>
</g>
<g >
<title>[unknown] (2 samples, 10.53%)</title><rect x="134.2" y="453" width="124.2" height="15.0" fill="rgb(242,180,40)" rx="2" ry="2" />
<text  x="137.21" y="463.5" >[unknown]</text>
</g>
<g >
<title>getname (1 samples, 5.26%)</title><rect x="506.8" y="229" width="62.1" height="15.0" fill="rgb(241,170,40)" rx="2" ry="2" />
<text  x="509.84" y="239.5" >getname</text>
</g>
<g >
<title>entry_SYSCALL_64_after_hwframe (4 samples, 21.05%)</title><rect x="568.9" y="277" width="248.5" height="15.0" fill="rgb(241,196,40)" rx="2" ry="2" />
<text  x="571.95" y="287.5" >entry_SYSCALL_64_after_hwframe</text>
</g>
<g >
<title>runtime.netpoll (1 samples, 5.26%)</title><rect x="10.0" y="309" width="62.1" height="15.0" fill="rgb(229,156,26)" rx="2" ry="2" />
<text  x="13.00" y="319.5" >runtim..</text>
</g>
<g >
<title>show_map (1 samples, 5.26%)</title><rect x="693.2" y="149" width="62.1" height="15.0" fill="rgb(240,155,39)" rx="2" ry="2" />
<text  x="696.16" y="159.5" >show_map</text>
</g>
<g >
<title>[unknown] (2 samples, 10.53%)</title><rect x="1065.8" y="309" width="124.2" height="15.0" fill="rgb(242,180,40)" rx="2" ry="2" />
<text  x="1068.79" y="319.5" >[unknown]</text>
</g>
<g >
<title>futex_wait (1 samples, 5.26%)</title><rect x="72.1" y="229" width="62.1" height="15.0" fill="rgb(237,152,35)" rx="2" ry="2" />
<text  x="75.11" y="239.5" >futex_..</text>
</g>
<g >
<title>_IO_file_open (2 samples, 10.53%)</title><rect x="1065.8" y="229" width="124.2" height="15.0" fill="rgb(250,132,49)" rx="2" ry="2" />
<text  x="1068.79" y="239.5" >_IO_file_open</text>
</g>
<g >
<title>show_map_vma (1 samples, 5.26%)</title><rect x="693.2" y="133" width="62.1" height="15.0" fill="rgb(224,155,21)" rx="2" ry="2" />
<text  x="696.16" y="143.5" >show_m..</text>
</g>
<g >
<title>runtime.goexit.abi0 (2 samples, 10.53%)</title><rect x="10.0" y="453" width="124.2" height="15.0" fill="rgb(233,156,30)" rx="2" ry="2" />
<text  x="13.00" y="463.5" >runtime.goexit...</text>
</g>
<g >
<title>__cond_resched (1 samples, 5.26%)</title><rect x="320.5" y="133" width="62.1" height="15.0" fill="rgb(247,144,46)" rx="2" ry="2" />
<text  x="323.53" y="143.5" >__cond..</text>
</g>
<g >
<title>kvfree (1 samples, 5.26%)</title><rect x="444.7" y="181" width="62.1" height="15.0" fill="rgb(246,114,46)" rx="2" ry="2" />
<text  x="447.74" y="191.5" >kvfree</text>
</g>
<g >
<title>percpu_counter_add_batch (1 samples, 5.26%)</title><rect x="382.6" y="197" width="62.1" height="15.0" fill="rgb(242,184,41)" rx="2" ry="2" />
<text  x="385.63" y="207.5" >percpu..</text>
</g>
<g >
<title>ep_poll (1 samples, 5.26%)</title><rect x="10.0" y="165" width="62.1" height="15.0" fill="rgb(229,176,26)" rx="2" ry="2" />
<text  x="13.00" y="175.5" >ep_poll</text>
</g>
<g >
<title>[unknown] (1 samples, 5.26%)</title><rect x="196.3" y="309" width="62.1" height="15.0" fill="rgb(242,180,40)" rx="2" ry="2" />
<text  x="199.32" y="319.5" >[unkno..</text>
</g>
<g >
<title>plist_add (1 samples, 5.26%)</title><rect x="72.1" y="181" width="62.1" height="15.0" fill="rgb(253,139,53)" rx="2" ry="2" />
<text  x="75.11" y="191.5" >plist_..</text>
</g>
<g >
<title>alloc_empty_file (1 samples, 5.26%)</title><rect x="258.4" y="181" width="62.1" height="15.0" fill="rgb(237,128,35)" rx="2" ry="2" />
<text  x="261.42" y="191.5" >alloc_..</text>
</g>
<g >
<title>futex_wait_queue (1 samples, 5.26%)</title><rect x="72.1" y="197" width="62.1" height="15.0" fill="rgb(242,152,40)" rx="2" ry="2" />
<text  x="75.11" y="207.5" >futex_..</text>
</g>
<g >
<title>do_epoll_pwait.part.0 (1 samples, 5.26%)</title><rect x="10.0" y="213" width="62.1" height="15.0" fill="rgb(233,189,31)" rx="2" ry="2" />
<text  x="13.00" y="223.5" >do_epo..</text>
</g>
<g >
<title>runtime.notesleep (1 samples, 5.26%)</title><rect x="72.1" y="341" width="62.1" height="15.0" fill="rgb(245,156,44)" rx="2" ry="2" />
<text  x="75.11" y="351.5" >runtim..</text>
</g>
<g >
<title>snprintf (1 samples, 5.26%)</title><rect x="879.5" y="197" width="62.1" height="15.0" fill="rgb(243,177,42)" rx="2" ry="2" />
<text  x="882.47" y="207.5" >snprintf</text>
</g>
<g >
<title>ep_poll (1 samples, 5.26%)</title><rect x="10.0" y="181" width="62.1" height="15.0" fill="rgb(229,176,26)" rx="2" ry="2" />
<text  x="13.00" y="191.5" >ep_poll</text>
</g>
<g >
<title>entry_SYSCALL_64_after_hwframe (1 samples, 5.26%)</title><rect x="1003.7" y="341" width="62.1" height="15.0" fill="rgb(241,196,40)" rx="2" ry="2" />
<text  x="1006.68" y="351.5" >entry_..</text>
</g>
<g >
<title>xfopenat_full (2 samples, 10.53%)</title><rect x="1065.8" y="277" width="124.2" height="15.0" fill="rgb(224,205,21)" rx="2" ry="2" />
<text  x="1068.79" y="287.5" >xfopenat_full</text>
</g>
<g >
<title>proc_pid_permission (1 samples, 5.26%)</title><rect x="941.6" y="181" width="62.1" height="15.0" fill="rgb(247,184,46)" rx="2" ry="2" />
<text  x="944.58" y="191.5" >proc_p..</text>
</g>
<g >
<title>__libc_start_main_impl (13 samples, 68.42%)</title><rect x="258.4" y="437" width="807.4" height="15.0" fill="rgb(238,154,36)" rx="2" ry="2" />
<text  x="261.42" y="447.5" >__libc_start_main_impl</text>
</g>
<g >
<title>entry_SYSCALL_64_after_hwframe (2 samples, 10.53%)</title><rect x="1065.8" y="197" width="124.2" height="15.0" fill="rgb(241,196,40)" rx="2" ry="2" />
<text  x="1068.79" y="207.5" >entry_SYSCALL_6..</text>
</g>
<g >
<title>runtime.findRunnable (1 samples, 5.26%)</title><rect x="72.1" y="373" width="62.1" height="15.0" fill="rgb(241,156,40)" rx="2" ry="2" />
<text  x="75.11" y="383.5" >runtim..</text>
</g>
<g >
<title>runtime.gopark (1 samples, 5.26%)</title><rect x="10.0" y="389" width="62.1" height="15.0" fill="rgb(237,156,35)" rx="2" ry="2" />
<text  x="13.00" y="399.5" >runtim..</text>
</g>
<g >
<title>__libc_start_main_impl (2 samples, 10.53%)</title><rect x="1065.8" y="437" width="124.2" height="15.0" fill="rgb(238,154,36)" rx="2" ry="2" />
<text  x="1068.79" y="447.5" >__libc_start_ma..</text>
</g>
<g >
<title>github.com/containerd/containerd/gc/scheduler.(*gcScheduler).run (1 samples, 5.26%)</title><rect x="10.0" y="421" width="62.1" height="15.0" fill="rgb(243,149,41)" rx="2" ry="2" />
<text  x="13.00" y="431.5" >github..</text>
</g>
<g >
<title>runtime.selectgo (1 samples, 5.26%)</title><rect x="10.0" y="405" width="62.1" height="15.0" fill="rgb(243,156,42)" rx="2" ry="2" />
<text  x="13.00" y="415.5" >runtim..</text>
</g>
<g >
<title>do_filp_open (1 samples, 5.26%)</title><rect x="941.6" y="245" width="62.1" height="15.0" fill="rgb(250,189,49)" rx="2" ry="2" />
<text  x="944.58" y="255.5" >do_fil..</text>
</g>
<g >
<title>_start (13 samples, 68.42%)</title><rect x="258.4" y="453" width="807.4" height="15.0" fill="rgb(239,139,37)" rx="2" ry="2" />
<text  x="261.42" y="463.5" >_start</text>
</g>
<g >
<title>kfree (1 samples, 5.26%)</title><rect x="444.7" y="165" width="62.1" height="15.0" fill="rgb(246,139,46)" rx="2" ry="2" />
<text  x="447.74" y="175.5" >kfree</text>
</g>
<g >
<title>runtime.findRunnable (1 samples, 5.26%)</title><rect x="10.0" y="325" width="62.1" height="15.0" fill="rgb(241,156,40)" rx="2" ry="2" />
<text  x="13.00" y="335.5" >runtim..</text>
</g>
<g >
<title>path_openat (1 samples, 5.26%)</title><rect x="941.6" y="229" width="62.1" height="15.0" fill="rgb(233,142,31)" rx="2" ry="2" />
<text  x="944.58" y="239.5" >path_o..</text>
</g>
<g >
<title>__x64_sys_epoll_pwait (1 samples, 5.26%)</title><rect x="10.0" y="229" width="62.1" height="15.0" fill="rgb(237,154,35)" rx="2" ry="2" />
<text  x="13.00" y="239.5" >__x64_..</text>
</g>
<g >
<title>getname_flags.part.0 (1 samples, 5.26%)</title><rect x="506.8" y="213" width="62.1" height="15.0" fill="rgb(233,170,31)" rx="2" ry="2" />
<text  x="509.84" y="223.5" >getnam..</text>
</g>
<g >
<title>meta_context_run_main_loop (2 samples, 10.53%)</title><rect x="134.2" y="421" width="124.2" height="15.0" fill="rgb(248,122,47)" rx="2" ry="2" />
<text  x="137.21" y="431.5" >meta_context_ru..</text>
</g>
<g >
<title>init_file (1 samples, 5.26%)</title><rect x="258.4" y="165" width="62.1" height="15.0" fill="rgb(237,161,35)" rx="2" ry="2" />
<text  x="261.42" y="175.5" >init_f..</text>
</g>
<g >
<title>do_syscall_64 (1 samples, 5.26%)</title><rect x="506.8" y="293" width="62.1" height="15.0" fill="rgb(232,189,30)" rx="2" ry="2" />
<text  x="509.84" y="303.5" >do_sys..</text>
</g>
<g >
<title>m_next (2 samples, 10.53%)</title><rect x="568.9" y="133" width="124.3" height="15.0" fill="rgb(230,116,27)" rx="2" ry="2" />
<text  x="571.95" y="143.5" >m_next</text>
</g>
<g >
<title>do_syscall_64 (3 samples, 15.79%)</title><rect x="568.9" y="261" width="186.4" height="15.0" fill="rgb(232,189,30)" rx="2" ry="2" />
<text  x="571.95" y="271.5" >do_syscall_64</text>
</g>
<g >
<title>proc_pid_permission (1 samples, 5.26%)</title><rect x="941.6" y="165" width="62.1" height="15.0" fill="rgb(247,184,46)" rx="2" ry="2" />
<text  x="944.58" y="175.5" >proc_p..</text>
</g>
<g >
<title>entry_SYSCALL_64_after_hwframe (2 samples, 10.53%)</title><rect x="382.6" y="293" width="124.2" height="15.0" fill="rgb(241,196,40)" rx="2" ry="2" />
<text  x="385.63" y="303.5" >entry_SYSCALL_6..</text>
</g>
<g >
<title>proc_root_readdir (2 samples, 10.53%)</title><rect x="817.4" y="245" width="124.2" height="15.0" fill="rgb(238,184,37)" rx="2" ry="2" />
<text  x="820.37" y="255.5" >proc_root_readdir</text>
</g>
<g >
<title>runtime.goexit1 (1 samples, 5.26%)</title><rect x="72.1" y="437" width="62.1" height="15.0" fill="rgb(226,156,23)" rx="2" ry="2" />
<text  x="75.11" y="447.5" >runtim..</text>
</g>
<g >
<title>path_openat (2 samples, 10.53%)</title><rect x="258.4" y="197" width="124.2" height="15.0" fill="rgb(233,142,31)" rx="2" ry="2" />
<text  x="261.42" y="207.5" >path_openat</text>
</g>
<g >
<title>[unknown] (2 samples, 10.53%)</title><rect x="1065.8" y="405" width="124.2" height="15.0" fill="rgb(242,180,40)" rx="2" ry="2" />
<text  x="1068.79" y="415.5" >[unknown]</text>
</g>
<g >
<title>__openat64 (1 samples, 5.26%)</title><rect x="941.6" y="341" width="62.1" height="15.0" fill="rgb(234,144,32)" rx="2" ry="2" />
<text  x="944.58" y="351.5" >__open..</text>
</g>
<g >
<title>__openat64 (1 samples, 5.26%)</title><rect x="506.8" y="325" width="62.1" height="15.0" fill="rgb(234,144,32)" rx="2" ry="2" />
<text  x="509.84" y="335.5" >__open..</text>
</g>
<g >
<title>runtime.mcall (1 samples, 5.26%)</title><rect x="72.1" y="421" width="62.1" height="15.0" fill="rgb(230,156,28)" rx="2" ry="2" />
<text  x="75.11" y="431.5" >runtim..</text>
</g>
<g >
<title>read (4 samples, 21.05%)</title><rect x="568.9" y="293" width="248.5" height="15.0" fill="rgb(241,184,40)" rx="2" ry="2" />
<text  x="571.95" y="303.5" >read</text>
</g>
<g >
<title>lookup_open.isra.0 (1 samples, 5.26%)</title><rect x="320.5" y="165" width="62.1" height="15.0" fill="rgb(238,151,36)" rx="2" ry="2" />
<text  x="323.53" y="175.5" >lookup..</text>
</g>
<g >
<title>runtime.schedule (1 samples, 5.26%)</title><rect x="72.1" y="389" width="62.1" height="15.0" fill="rgb(237,156,35)" rx="2" ry="2" />
<text  x="75.11" y="399.5" >runtim..</text>
</g>
<g >
<title>__close_nocancel (2 samples, 10.53%)</title><rect x="382.6" y="309" width="124.2" height="15.0" fill="rgb(236,144,34)" rx="2" ry="2" />
<text  x="385.63" y="319.5" >__close_nocancel</text>
</g>
<g >
<title>do_syscall_64 (2 samples, 10.53%)</title><rect x="382.6" y="277" width="124.2" height="15.0" fill="rgb(232,189,30)" rx="2" ry="2" />
<text  x="385.63" y="287.5" >do_syscall_64</text>
</g>
<g >
<title>iterate_dir (2 samples, 10.53%)</title><rect x="817.4" y="261" width="124.2" height="15.0" fill="rgb(238,143,37)" rx="2" ry="2" />
<text  x="820.37" y="271.5" >iterate_dir</text>
</g>
<g >
<title>[unknown] (2 samples, 10.53%)</title><rect x="134.2" y="437" width="124.2" height="15.0" fill="rgb(242,180,40)" rx="2" ry="2" />
<text  x="137.21" y="447.5" >[unknown]</text>
</g>
<g >
<title>x64_sys_call (2 samples, 10.53%)</title><rect x="817.4" y="293" width="124.2" height="15.0" fill="rgb(230,166,28)" rx="2" ry="2" />
<text  x="820.37" y="303.5" >x64_sys_call</text>
</g>
<g >
<title>x64_sys_call (2 samples, 10.53%)</title><rect x="382.6" y="261" width="124.2" height="15.0" fill="rgb(230,166,28)" rx="2" ry="2" />
<text  x="385.63" y="271.5" >x64_sys_call</text>
</g>
<g >
<title>sd_event_loop (2 samples, 10.53%)</title><rect x="1065.8" y="389" width="124.2" height="15.0" fill="rgb(248,149,47)" rx="2" ry="2" />
<text  x="1068.79" y="399.5" >sd_event_loop</text>
</g>
<g >
<title>syscall_trace_enter (1 samples, 5.26%)</title><rect x="1065.8" y="165" width="62.1" height="15.0" fill="rgb(240,167,38)" rx="2" ry="2" />
<text  x="1068.79" y="175.5" >syscal..</text>
</g>
<g >
<title>plist_add (1 samples, 5.26%)</title><rect x="72.1" y="165" width="62.1" height="15.0" fill="rgb(253,139,53)" rx="2" ry="2" />
<text  x="75.11" y="175.5" >plist_..</text>
</g>
<g >
<title>runtime.schedule (1 samples, 5.26%)</title><rect x="10.0" y="341" width="62.1" height="15.0" fill="rgb(237,156,35)" rx="2" ry="2" />
<text  x="13.00" y="351.5" >runtim..</text>
</g>
<g >
<title>do_sys_openat2 (1 samples, 5.26%)</title><rect x="1127.9" y="133" width="62.1" height="15.0" fill="rgb(247,189,46)" rx="2" ry="2" />
<text  x="1130.89" y="143.5" >do_sys..</text>
</g>
<g >
<title>__fput_sync (1 samples, 5.26%)</title><rect x="1003.7" y="277" width="62.1" height="15.0" fill="rgb(238,135,36)" rx="2" ry="2" />
<text  x="1006.68" y="287.5" >__fput..</text>
</g>
<g >
<title>_IO_fgets (4 samples, 21.05%)</title><rect x="568.9" y="341" width="248.5" height="15.0" fill="rgb(236,132,34)" rx="2" ry="2" />
<text  x="571.95" y="351.5" >_IO_fgets</text>
</g>
<g >
<title>[unknown] (2 samples, 10.53%)</title><rect x="134.2" y="357" width="124.2" height="15.0" fill="rgb(242,180,40)" rx="2" ry="2" />
<text  x="137.21" y="367.5" >[unknown]</text>
</g>
<g >
<title>ksys_read (3 samples, 15.79%)</title><rect x="568.9" y="213" width="186.4" height="15.0" fill="rgb(241,145,40)" rx="2" ry="2" />
<text  x="571.95" y="223.5" >ksys_read</text>
</g>
<g >
<title>seq_read_iter (3 samples, 15.79%)</title><rect x="568.9" y="165" width="186.4" height="15.0" fill="rgb(240,163,38)" rx="2" ry="2" />
<text  x="571.95" y="175.5" >seq_read_iter</text>
</g>
<g >
<title>__futex_wait (1 samples, 5.26%)</title><rect x="72.1" y="213" width="62.1" height="15.0" fill="rgb(237,135,35)" rx="2" ry="2" />
<text  x="75.11" y="223.5" >__fute..</text>
</g>
<g >
<title>__x64_sys_close (1 samples, 5.26%)</title><rect x="1003.7" y="293" width="62.1" height="15.0" fill="rgb(245,154,44)" rx="2" ry="2" />
<text  x="1006.68" y="303.5" >__x64_..</text>
</g>
<g >
<title>__secure_computing (1 samples, 5.26%)</title><rect x="1065.8" y="149" width="62.1" height="15.0" fill="rgb(243,132,42)" rx="2" ry="2" />
<text  x="1068.79" y="159.5" >__secu..</text>
</g>
<g >
<title>github.com/containerd/containerd/gc/scheduler.init.1.func1.gowrap1 (1 samples, 5.26%)</title><rect x="10.0" y="437" width="62.1" height="15.0" fill="rgb(236,149,34)" rx="2" ry="2" />
<text  x="13.00" y="447.5" >github..</text>
</g>
<g >
<title>CommandLine_run (13 samples, 68.42%)</title><rect x="258.4" y="405" width="807.4" height="15.0" fill="rgb(243,165,41)" rx="2" ry="2" />
<text  x="261.42" y="415.5" >CommandLine_run</text>
</g>
<g >
<title>__fput (1 samples, 5.26%)</title><rect x="1003.7" y="245" width="62.1" height="15.0" fill="rgb(234,135,31)" rx="2" ry="2" />
<text  x="1006.68" y="255.5" >__fput</text>
</g>
<g >
<title>syscall_exit_to_user_mode (1 samples, 5.26%)</title><rect x="755.3" y="261" width="62.1" height="15.0" fill="rgb(250,167,49)" rx="2" ry="2" />
<text  x="758.26" y="271.5" >syscal..</text>
</g>
<g >
<title>entry_SYSCALL_64_after_hwframe (1 samples, 5.26%)</title><rect x="941.6" y="325" width="62.1" height="15.0" fill="rgb(241,196,40)" rx="2" ry="2" />
<text  x="944.58" y="335.5" >entry_..</text>
</g>
<g >
<title>entry_SYSCALL_64_after_hwframe (1 samples, 5.26%)</title><rect x="506.8" y="309" width="62.1" height="15.0" fill="rgb(241,196,40)" rx="2" ry="2" />
<text  x="509.84" y="319.5" >entry_..</text>
</g>
<g >
<title>runtime.futex.abi0 (1 samples, 5.26%)</title><rect x="72.1" y="325" width="62.1" height="15.0" fill="rgb(233,156,30)" rx="2" ry="2" />
<text  x="75.11" y="335.5" >runtim..</text>
</g>
<g >
<title>do_filp_open (1 samples, 5.26%)</title><rect x="1127.9" y="117" width="62.1" height="15.0" fill="rgb(250,189,49)" rx="2" ry="2" />
<text  x="1130.89" y="127.5" >do_fil..</text>
</g>
<g >
<title>sd_event_run (2 samples, 10.53%)</title><rect x="1065.8" y="373" width="124.2" height="15.0" fill="rgb(243,149,41)" rx="2" ry="2" />
<text  x="1068.79" y="383.5" >sd_event_run</text>
</g>
<g >
<title>__x64_sys_openat (1 samples, 5.26%)</title><rect x="506.8" y="261" width="62.1" height="15.0" fill="rgb(233,154,31)" rx="2" ry="2" />
<text  x="509.84" y="271.5" >__x64_..</text>
</g>
<g >
<title>__openat64 (2 samples, 10.53%)</title><rect x="258.4" y="309" width="124.2" height="15.0" fill="rgb(234,144,32)" rx="2" ry="2" />
<text  x="261.42" y="319.5" >__openat64</text>
</g>
<g >
<title>entry_SYSCALL_64_after_hwframe (2 samples, 10.53%)</title><rect x="258.4" y="293" width="124.2" height="15.0" fill="rgb(241,196,40)" rx="2" ry="2" />
<text  x="261.42" y="303.5" >entry_SYSCALL_6..</text>
</g>
<g >
<title>__fput_sync (2 samples, 10.53%)</title><rect x="382.6" y="229" width="124.2" height="15.0" fill="rgb(238,135,36)" rx="2" ry="2" />
<text  x="385.63" y="239.5" >__fput_sync</text>
</g>
<g >
<title>__x64_sys_close (2 samples, 10.53%)</title><rect x="382.6" y="245" width="124.2" height="15.0" fill="rgb(245,154,44)" rx="2" ry="2" />
<text  x="385.63" y="255.5" >__x64_sys_close</text>
</g>
<g >
<title>gnome-shell (2 samples, 10.53%)</title><rect x="134.2" y="469" width="124.2" height="15.0" fill="rgb(227,196,24)" rx="2" ry="2" />
<text  x="137.21" y="479.5" >gnome-shell</text>
</g>
<g >
<title>strchr (1 samples, 5.26%)</title><rect x="693.2" y="101" width="62.1" height="15.0" fill="rgb(240,140,38)" rx="2" ry="2" />
<text  x="696.16" y="111.5" >strchr</text>
</g>
<g >
<title>x64_sys_call (3 samples, 15.79%)</title><rect x="568.9" y="245" width="186.4" height="15.0" fill="rgb(230,166,28)" rx="2" ry="2" />
<text  x="571.95" y="255.5" >x64_sys_call</text>
</g>
<g >
<title>_IO_fopen64 (2 samples, 10.53%)</title><rect x="1065.8" y="261" width="124.2" height="15.0" fill="rgb(239,132,37)" rx="2" ry="2" />
<text  x="1068.79" y="271.5" >_IO_fopen64</text>
</g>
<g >
<title>_IO_default_uflow (4 samples, 21.05%)</title><rect x="568.9" y="309" width="248.5" height="15.0" fill="rgb(238,132,36)" rx="2" ry="2" />
<text  x="571.95" y="319.5" >_IO_default_uflow</text>
</g>
<g >
<title>x64_sys_call (1 samples, 5.26%)</title><rect x="10.0" y="245" width="62.1" height="15.0" fill="rgb(230,166,28)" rx="2" ry="2" />
<text  x="13.00" y="255.5" >x64_sy..</text>
</g>
<g >
<title>m_next (2 samples, 10.53%)</title><rect x="568.9" y="149" width="124.3" height="15.0" fill="rgb(230,116,27)" rx="2" ry="2" />
<text  x="571.95" y="159.5" >m_next</text>
</g>
<g >
<title>do_syscall_64 (1 samples, 5.26%)</title><rect x="941.6" y="309" width="62.1" height="15.0" fill="rgb(232,189,30)" rx="2" ry="2" />
<text  x="944.58" y="319.5" >do_sys..</text>
</g>
<g >
<title>vfs_read (3 samples, 15.79%)</title><rect x="568.9" y="197" width="186.4" height="15.0" fill="rgb(241,128,40)" rx="2" ry="2" />
<text  x="571.95" y="207.5" >vfs_read</text>
</g>
<g >
<title>Machine_scanTables (13 samples, 68.42%)</title><rect x="258.4" y="373" width="807.4" height="15.0" fill="rgb(244,118,43)" rx="2" ry="2" />
<text  x="261.42" y="383.5" >Machine_scanTables</text>
</g>
<g >
<title>_IO_getline_info (4 samples, 21.05%)</title><rect x="568.9" y="325" width="248.5" height="15.0" fill="rgb(248,132,47)" rx="2" ry="2" />
<text  x="571.95" y="335.5" >_IO_getline_info</text>
</g>
<g >
<title>[unknown] (1 samples, 5.26%)</title><rect x="196.3" y="341" width="62.1" height="15.0" fill="rgb(242,180,40)" rx="2" ry="2" />
<text  x="199.32" y="351.5" >[unkno..</text>
</g>
<g >
<title>[unknown] (5 samples, 26.32%)</title><rect x="258.4" y="341" width="310.5" height="15.0" fill="rgb(242,180,40)" rx="2" ry="2" />
<text  x="261.42" y="351.5" >[unknown]</text>
</g>
<g >
<title>__x64_sys_openat (1 samples, 5.26%)</title><rect x="941.6" y="277" width="62.1" height="15.0" fill="rgb(233,154,31)" rx="2" ry="2" />
<text  x="944.58" y="287.5" >__x64_..</text>
</g>
<g >
<title>do_syscall_64 (2 samples, 10.53%)</title><rect x="817.4" y="309" width="124.2" height="15.0" fill="rgb(232,189,30)" rx="2" ry="2" />
<text  x="820.37" y="319.5" >do_syscall_64</text>
</g>
<g >
<title>open_last_lookups (1 samples, 5.26%)</title><rect x="1127.9" y="85" width="62.1" height="15.0" fill="rgb(237,195,36)" rx="2" ry="2" />
<text  x="1130.89" y="95.5" >open_l..</text>
</g>
<g >
<title>__d_lookup (1 samples, 5.26%)</title><rect x="1127.9" y="37" width="62.1" height="15.0" fill="rgb(236,141,34)" rx="2" ry="2" />
<text  x="1130.89" y="47.5" >__d_lo..</text>
</g>
<g >
<title>entry_SYSCALL_64_after_hwframe (2 samples, 10.53%)</title><rect x="817.4" y="325" width="124.2" height="15.0" fill="rgb(241,196,40)" rx="2" ry="2" />
<text  x="820.37" y="335.5" >entry_SYSCALL_6..</text>
</g>
<g >
<title>x64_sys_call (1 samples, 5.26%)</title><rect x="1127.9" y="165" width="62.1" height="15.0" fill="rgb(230,166,28)" rx="2" ry="2" />
<text  x="1130.89" y="175.5" >x64_sy..</text>
</g>
<g >
<title>g_list_foreach (1 samples, 5.26%)</title><rect x="196.3" y="325" width="62.1" height="15.0" fill="rgb(247,170,46)" rx="2" ry="2" />
<text  x="199.32" y="335.5" >g_list..</text>
</g>
<g >
<title>__x64_sys_openat (2 samples, 10.53%)</title><rect x="258.4" y="245" width="124.2" height="15.0" fill="rgb(233,154,31)" rx="2" ry="2" />
<text  x="261.42" y="255.5" >__x64_sys_openat</text>
</g>
<g >
<title>runtime.mcall (1 samples, 5.26%)</title><rect x="10.0" y="373" width="62.1" height="15.0" fill="rgb(230,156,28)" rx="2" ry="2" />
<text  x="13.00" y="383.5" >runtim..</text>
</g>
<g >
<title>htop (13 samples, 68.42%)</title><rect x="258.4" y="469" width="807.4" height="15.0" fill="rgb(244,158,43)" rx="2" ry="2" />
<text  x="261.42" y="479.5" >htop</text>
</g>
<g >
<title>do_syscall_64 (1 samples, 5.26%)</title><rect x="72.1" y="293" width="62.1" height="15.0" fill="rgb(232,189,30)" rx="2" ry="2" />
<text  x="75.11" y="303.5" >do_sys..</text>
</g>
<g >
<title>sd_event_dispatch (2 samples, 10.53%)</title><rect x="1065.8" y="357" width="124.2" height="15.0" fill="rgb(242,149,41)" rx="2" ry="2" />
<text  x="1068.79" y="367.5" >sd_event_dispatch</text>
</g>
<g >
<title>single_release (1 samples, 5.26%)</title><rect x="444.7" y="197" width="62.1" height="15.0" fill="rgb(247,153,46)" rx="2" ry="2" />
<text  x="447.74" y="207.5" >single..</text>
</g>
<g >
<title>strchr (1 samples, 5.26%)</title><rect x="693.2" y="85" width="62.1" height="15.0" fill="rgb(240,140,38)" rx="2" ry="2" />
<text  x="696.16" y="95.5" >strchr</text>
</g>
<g >
<title>__new_fclose (2 samples, 10.53%)</title><rect x="382.6" y="325" width="124.2" height="15.0" fill="rgb(245,148,44)" rx="2" ry="2" />
<text  x="385.63" y="335.5" >__new_fclose</text>
</g>
<g >
<title>[unknown] (2 samples, 10.53%)</title><rect x="258.4" y="325" width="124.2" height="15.0" fill="rgb(242,180,40)" rx="2" ry="2" />
<text  x="261.42" y="335.5" >[unknown]</text>
</g>
<g >
<title>__x64_sys_getdents64 (2 samples, 10.53%)</title><rect x="817.4" y="277" width="124.2" height="15.0" fill="rgb(235,154,33)" rx="2" ry="2" />
<text  x="820.37" y="287.5" >__x64_sys_getde..</text>
</g>
<g >
<title>do_syscall_64 (2 samples, 10.53%)</title><rect x="1065.8" y="181" width="124.2" height="15.0" fill="rgb(232,189,30)" rx="2" ry="2" />
<text  x="1068.79" y="191.5" >do_syscall_64</text>
</g>
<g >
<title>__libc_start_call_main (13 samples, 68.42%)</title><rect x="258.4" y="421" width="807.4" height="15.0" fill="rgb(247,154,46)" rx="2" ry="2" />
<text  x="261.42" y="431.5" >__libc_start_call_main</text>
</g>
<g >
<title>bpf_prog_b8cb7c6e6d53ac49 (1 samples, 5.26%)</title><rect x="1065.8" y="133" width="62.1" height="15.0" fill="rgb(231,136,29)" rx="2" ry="2" />
<text  x="1068.79" y="143.5" >bpf_pr..</text>
</g>
<g >
<title>do_filp_open (2 samples, 10.53%)</title><rect x="258.4" y="213" width="124.2" height="15.0" fill="rgb(250,189,49)" rx="2" ry="2" />
<text  x="261.42" y="223.5" >do_filp_open</text>
</g>
<g >
<title>path_openat (1 samples, 5.26%)</title><rect x="1127.9" y="101" width="62.1" height="15.0" fill="rgb(233,142,31)" rx="2" ry="2" />
<text  x="1130.89" y="111.5" >path_o..</text>
</g>
<g >
<title>runtime/internal/syscall.Syscall6 (1 samples, 5.26%)</title><rect x="10.0" y="293" width="62.1" height="15.0" fill="rgb(238,156,36)" rx="2" ry="2" />
<text  x="13.00" y="303.5" >runtim..</text>
</g>
<g >
<title>lookup_fast (1 samples, 5.26%)</title><rect x="1127.9" y="69" width="62.1" height="15.0" fill="rgb(238,151,36)" rx="2" ry="2" />
<text  x="1130.89" y="79.5" >lookup..</text>
</g>
<g >
<title>[unknown] (2 samples, 10.53%)</title><rect x="134.2" y="373" width="124.2" height="15.0" fill="rgb(242,180,40)" rx="2" ry="2" />
<text  x="137.21" y="383.5" >[unknown]</text>
</g>
<g >
<title>__x64_sys_openat (1 samples, 5.26%)</title><rect x="1127.9" y="149" width="62.1" height="15.0" fill="rgb(233,154,31)" rx="2" ry="2" />
<text  x="1130.89" y="159.5" >__x64_..</text>
</g>
<g >
<title>g_main_loop_run (2 samples, 10.53%)</title><rect x="134.2" y="405" width="124.2" height="15.0" fill="rgb(243,167,41)" rx="2" ry="2" />
<text  x="137.21" y="415.5" >g_main_loop_run</text>
</g>
<g >
<title>[unknown] (2 samples, 10.53%)</title><rect x="1065.8" y="453" width="124.2" height="15.0" fill="rgb(242,180,40)" rx="2" ry="2" />
<text  x="1068.79" y="463.5" >[unknown]</text>
</g>
<g >
<title>do_futex (1 samples, 5.26%)</title><rect x="72.1" y="245" width="62.1" height="15.0" fill="rgb(247,189,46)" rx="2" ry="2" />
<text  x="75.11" y="255.5" >do_futex</text>
</g>
<g >
<title>entry_SYSCALL_64_after_hwframe (1 samples, 5.26%)</title><rect x="10.0" y="277" width="62.1" height="15.0" fill="rgb(241,196,40)" rx="2" ry="2" />
<text  x="13.00" y="287.5" >entry_..</text>
</g>
<g >
<title>open_last_lookups (1 samples, 5.26%)</title><rect x="320.5" y="181" width="62.1" height="15.0" fill="rgb(237,195,36)" rx="2" ry="2" />
<text  x="323.53" y="191.5" >open_l..</text>
</g>
<g >
<title>x64_sys_call (1 samples, 5.26%)</title><rect x="506.8" y="277" width="62.1" height="15.0" fill="rgb(230,166,28)" rx="2" ry="2" />
<text  x="509.84" y="287.5" >x64_sy..</text>
</g>
<g >
<title>runtime.goexit0 (1 samples, 5.26%)</title><rect x="72.1" y="405" width="62.1" height="15.0" fill="rgb(228,156,25)" rx="2" ry="2" />
<text  x="75.11" y="415.5" >runtim..</text>
</g>
<g >
<title>do_syscall_64 (1 samples, 5.26%)</title><rect x="10.0" y="261" width="62.1" height="15.0" fill="rgb(232,189,30)" rx="2" ry="2" />
<text  x="13.00" y="271.5" >do_sys..</text>
</g>
<g >
<title>__fput (1 samples, 5.26%)</title><rect x="1003.7" y="261" width="62.1" height="15.0" fill="rgb(234,135,31)" rx="2" ry="2" />
<text  x="1006.68" y="271.5" >__fput</text>
</g>
<g >
<title>x64_sys_call (1 samples, 5.26%)</title><rect x="72.1" y="277" width="62.1" height="15.0" fill="rgb(230,166,28)" rx="2" ry="2" />
<text  x="75.11" y="287.5" >x64_sy..</text>
</g>
<g >
<title>[unknown] (2 samples, 10.53%)</title><rect x="134.2" y="389" width="124.2" height="15.0" fill="rgb(242,180,40)" rx="2" ry="2" />
<text  x="137.21" y="399.5" >[unknown]</text>
</g>
<g >
<title>x64_sys_call (1 samples, 5.26%)</title><rect x="1003.7" y="309" width="62.1" height="15.0" fill="rgb(230,166,28)" rx="2" ry="2" />
<text  x="1006.68" y="319.5" >x64_sy..</text>
</g>
<g >
<title>[unknown] (12 samples, 63.16%)</title><rect x="258.4" y="357" width="745.3" height="15.0" fill="rgb(242,180,40)" rx="2" ry="2" />
<text  x="261.42" y="367.5" >[unknown]</text>
</g>
<g >
<title>seq_path (1 samples, 5.26%)</title><rect x="693.2" y="117" width="62.1" height="15.0" fill="rgb(240,163,39)" rx="2" ry="2" />
<text  x="696.16" y="127.5" >seq_path</text>
</g>
<g >
<title>kfree (1 samples, 5.26%)</title><rect x="444.7" y="149" width="62.1" height="15.0" fill="rgb(246,139,46)" rx="2" ry="2" />
<text  x="447.74" y="159.5" >kfree</text>
</g>
<g >
<title>proc_pid_readdir (1 samples, 5.26%)</title><rect x="817.4" y="213" width="62.1" height="15.0" fill="rgb(238,184,37)" rx="2" ry="2" />
<text  x="820.37" y="223.5" >proc_p..</text>
</g>
<g >
<title>percpu_counter_add_batch (1 samples, 5.26%)</title><rect x="382.6" y="181" width="62.1" height="15.0" fill="rgb(242,184,41)" rx="2" ry="2" />
<text  x="385.63" y="191.5" >percpu..</text>
</g>
<g >
<title>[unknown] (2 samples, 10.53%)</title><rect x="1065.8" y="325" width="124.2" height="15.0" fill="rgb(242,180,40)" rx="2" ry="2" />
<text  x="1068.79" y="335.5" >[unknown]</text>
</g>
</g>
</svg>
